<svg fill="#000000" xmlns="http://www.w3.org/2000/svg"  viewBox="0 0 32 32" width="32px" height="32px"><path d="M 18 4 C 14.335938 4 11.554688 4.863281 9.6875 6.625 C 7.820313 8.386719 7 10.957031 7 14 L 7 14.90625 C 6.425781 15.449219 6 16.148438 6 17 C 6 18.257813 6.890625 19.15625 8 19.59375 C 8.371094 20.761719 8.773438 21.988281 9.21875 23.03125 C 9.707031 24.171875 10.144531 25.078125 10.75 25.71875 C 13.621094 28.753906 18.378906 28.753906 21.25 25.71875 C 21.855469 25.078125 22.261719 24.171875 22.75 23.03125 C 23.195313 21.988281 23.628906 20.761719 24 19.59375 C 25.109375 19.15625 26 18.257813 26 17 C 26 16.152344 25.570313 15.453125 25 14.90625 L 25 14 C 25 11.175781 24.355469 9.164063 23.21875 7.84375 C 22.253906 6.722656 20.964844 6.265625 19.6875 6.125 L 18.625 4 Z M 17.40625 6.0625 L 18.09375 7.4375 C 18.425781 8.105469 18.558594 8.578125 18.5625 8.78125 C 18.566406 8.984375 18.574219 8.902344 18.53125 8.9375 C 18.445313 9.011719 17.601563 9.226563 16.5625 9.28125 C 15.523438 9.335938 14.296875 9.308594 13.15625 9.75 C 12.015625 10.191406 11.011719 11.378906 11 13 L 13 13 C 13.007813 12.015625 13.238281 11.871094 13.875 11.625 C 14.511719 11.378906 15.613281 11.304688 16.6875 11.25 C 17.761719 11.195313 18.871094 11.261719 19.8125 10.46875 C 20.28125 10.074219 20.582031 9.390625 20.5625 8.71875 C 20.558594 8.570313 20.523438 8.429688 20.5 8.28125 C 20.933594 8.464844 21.335938 8.746094 21.6875 9.15625 C 22.414063 10 23 11.480469 23 14 L 23 15.84375 L 23.5 16.125 C 23.804688 16.300781 24 16.621094 24 17 C 24 17.535156 23.617188 17.957031 23.09375 18 L 22.40625 18.03125 L 22.21875 18.6875 C 21.847656 19.890625 21.386719 21.160156 20.9375 22.21875 C 20.488281 23.277344 19.972656 24.175781 19.8125 24.34375 C 17.683594 26.59375 14.316406 26.59375 12.1875 24.34375 C 12.027344 24.175781 11.511719 23.277344 11.0625 22.21875 C 10.613281 21.160156 10.152344 19.890625 9.78125 18.6875 L 9.59375 18.03125 L 8.90625 18 C 8.382813 17.957031 8 17.535156 8 17 C 8 16.625 8.191406 16.300781 8.5 16.125 L 9 15.84375 L 9 14 C 9 11.304688 9.683594 9.363281 11.0625 8.0625 C 12.34375 6.851563 14.433594 6.164063 17.40625 6.0625 Z M 13 16 C 12.449219 16 12 16.449219 12 17 C 12 17.550781 12.449219 18 13 18 C 13.550781 18 14 17.550781 14 17 C 14 16.449219 13.550781 16 13 16 Z M 19 16 C 18.449219 16 18 16.449219 18 17 C 18 17.550781 18.449219 18 19 18 C 19.550781 18 20 17.550781 20 17 C 20 16.449219 19.550781 16 19 16 Z"/></svg>